<svg xmlns="http://www.w3.org/2000/svg" xmlns:xlink="http://www.w3.org/1999/xlink" version="1.1" xml:space="preserve" viewBox="17.72 1.41 220.28 252.9">

<defs>
</defs>
<g style="stroke: none; stroke-width: 0; stroke-dasharray: none; stroke-linecap: butt; stroke-linejoin: miter; stroke-miterlimit: 10; fill: none; fill-rule: nonzero; opacity: 1;" transform="translate(1.4065934065934016 1.4065934065934016) scale(2.81 2.81)">
	<path d="M 55.42 1.994 c 0.551 0 0.997 -0.446 0.997 -0.997 S 55.971 0 55.42 0 c -4.925 0 -8.982 4.317 -9.443 9.817 C 45.654 9.785 45.329 9.767 45 9.767 c -0.355 0 -0.705 0.024 -1.053 0.062 C 43.491 4.323 39.431 0 34.503 0 c -0.551 0 -0.997 0.446 -0.997 0.997 s 0.446 0.997 0.997 0.997 c 3.961 0 7.206 3.656 7.47 8.264 c -3.692 1.202 -6.678 4.541 -7.706 8.94 l -0.195 0.834 l 10.629 4.252 l 11.246 -4.147 l -0.194 -0.853 c -1.018 -4.477 -4.047 -7.868 -7.802 -9.054 C 48.227 5.635 51.468 1.994 55.42 1.994 z" style="stroke: none; stroke-width: 1; stroke-dasharray: none; stroke-linecap: butt; stroke-linejoin: miter; stroke-miterlimit: 10; fill: rgb(63,67,71); fill-rule: nonzero; opacity: 1;" transform=" matrix(1 0 0 1 0 0) " stroke-linecap="round"/>
	<path d="M 83.135 45.337 c -2.321 -10.061 -8.28 -18.488 -16.35 -23.122 c -6.756 -3.879 -14.478 -4.8 -21.785 -2.613 c -7.304 -2.186 -15.028 -1.266 -21.785 2.613 c -8.07 4.633 -14.029 13.061 -16.35 23.122 C 2.42 64.606 12.348 84.498 28.996 89.681 L 30.022 90 L 45 25.073 L 59.977 90 l 1.026 -0.319 C 77.652 84.498 87.58 64.606 83.135 45.337 z" style="stroke: none; stroke-width: 1; stroke-dasharray: none; stroke-linecap: butt; stroke-linejoin: miter; stroke-miterlimit: 10; fill: rgb(225,75,75); fill-rule: nonzero; opacity: 1;" transform=" matrix(1 0 0 1 0 0) " stroke-linecap="round"/>
	<path d="M 31.105 80.872 c 4.204 2.352 8.917 3.67 13.895 3.67 c 4.978 0 9.691 -1.318 13.895 -3.67 L 45.009 21.974 L 31.105 80.872 z" style="stroke: none; stroke-width: 1; stroke-dasharray: none; stroke-linecap: butt; stroke-linejoin: miter; stroke-miterlimit: 10; fill: rgb(63,67,71); fill-rule: nonzero; opacity: 1;" transform=" matrix(1 0 0 1 0 0) " stroke-linecap="round"/>
	<path d="M 19.839 55.908 c -3.737 0 -6.778 -3.041 -6.778 -6.779 c 0 -3.737 3.04 -6.778 6.778 -6.778 s 6.778 3.041 6.778 6.778 C 26.618 52.867 23.577 55.908 19.839 55.908 z" style="stroke: none; stroke-width: 1; stroke-dasharray: none; stroke-linecap: butt; stroke-linejoin: miter; stroke-miterlimit: 10; fill: rgb(63,67,71); fill-rule: nonzero; opacity: 1;" transform=" matrix(1 0 0 1 0 0) " stroke-linecap="round"/>
	<path d="M 22.662 77.488 c -2.224 0 -4.032 -1.808 -4.032 -4.032 c 0 -2.224 1.809 -4.033 4.032 -4.033 s 4.033 1.809 4.033 4.033 C 26.695 75.68 24.886 77.488 22.662 77.488 z" style="stroke: none; stroke-width: 1; stroke-dasharray: none; stroke-linecap: butt; stroke-linejoin: miter; stroke-miterlimit: 10; fill: rgb(63,67,71); fill-rule: nonzero; opacity: 1;" transform=" matrix(1 0 0 1 0 0) " stroke-linecap="round"/>
	<path d="M 34.448 33.506 c -2.224 0 -4.033 -1.809 -4.033 -4.033 s 1.809 -4.032 4.033 -4.032 c 2.224 0 4.032 1.809 4.032 4.032 S 36.672 33.506 34.448 33.506 z" style="stroke: none; stroke-width: 1; stroke-dasharray: none; stroke-linecap: butt; stroke-linejoin: miter; stroke-miterlimit: 10; fill: rgb(63,67,71); fill-rule: nonzero; opacity: 1;" transform=" matrix(1 0 0 1 0 0) " stroke-linecap="round"/>
	<path d="M 70.16 55.908 c -3.737 0 -6.778 -3.041 -6.778 -6.779 c 0 -3.737 3.041 -6.778 6.778 -6.778 c 3.738 0 6.779 3.041 6.779 6.778 C 76.939 52.867 73.898 55.908 70.16 55.908 z" style="stroke: none; stroke-width: 1; stroke-dasharray: none; stroke-linecap: butt; stroke-linejoin: miter; stroke-miterlimit: 10; fill: rgb(63,67,71); fill-rule: nonzero; opacity: 1;" transform=" matrix(1 0 0 1 0 0) " stroke-linecap="round"/>
	<path d="M 67.338 77.488 c -2.224 0 -4.033 -1.808 -4.033 -4.032 c 0 -2.224 1.809 -4.033 4.033 -4.033 c 2.224 0 4.032 1.809 4.032 4.033 C 71.37 75.68 69.561 77.488 67.338 77.488 z" style="stroke: none; stroke-width: 1; stroke-dasharray: none; stroke-linecap: butt; stroke-linejoin: miter; stroke-miterlimit: 10; fill: rgb(63,67,71); fill-rule: nonzero; opacity: 1;" transform=" matrix(1 0 0 1 0 0) " stroke-linecap="round"/>
	<path d="M 55.553 33.506 c -2.224 0 -4.033 -1.809 -4.033 -4.033 s 1.809 -4.032 4.033 -4.032 s 4.032 1.809 4.032 4.032 S 57.776 33.506 55.553 33.506 z" style="stroke: none; stroke-width: 1; stroke-dasharray: none; stroke-linecap: butt; stroke-linejoin: miter; stroke-miterlimit: 10; fill: rgb(63,67,71); fill-rule: nonzero; opacity: 1;" transform=" matrix(1 0 0 1 0 0) " stroke-linecap="round"/>
</g>
</svg>